<svg xmlns="http://www.w3.org/2000/svg" viewBox="0 0 300 300"><switch><g><path fill="#169956" d="M0 0h75v300H0z"/><linearGradient id="a" gradientUnits="userSpaceOnUse" x1="0" y1="150" x2="300" y2="150"><stop offset="0" stop-color="#14578f"/><stop offset="1" stop-color="#143a8f"/></linearGradient><path fill="url(#a)" d="M300 0L89.1 300H0L210 0z"/><linearGradient id="b" gradientUnits="userSpaceOnUse" x1="412.5" y1="291" x2="412.5" y2="-9"><stop offset="0" stop-color="#009245"/><stop offset="1" stop-color="#39b54a"/></linearGradient><path fill="url(#b)" d="M375-9h75v300h-75z"/><linearGradient id="c" gradientUnits="userSpaceOnUse" x1="375" y1="141" x2="675" y2="141"><stop offset="0" stop-color="#14578f"/><stop offset="1" stop-color="#143a8f"/></linearGradient><path fill="url(#c)" d="M375 291L601.9-9H675L450 291z"/><linearGradient id="d" gradientUnits="userSpaceOnUse" x1="375" y1="141" x2="675" y2="141"><stop offset="0" stop-color="#39b54a"/><stop offset="1" stop-color="#009245"/></linearGradient><path fill="url(#d)" d="M375-9l210.9 300H675L465-9z"/><linearGradient id="e" gradientUnits="userSpaceOnUse" x1="638.438" y1="291" x2="638.438" y2="-9"><stop offset="0" stop-color="#14578f"/><stop offset="1" stop-color="#143a8f"/></linearGradient><path fill="url(#e)" d="M601.9-9H675v300h-73.1z"/><linearGradient id="f" gradientUnits="userSpaceOnUse" x1="0" y1="150" x2="300" y2="150"><stop offset="0" stop-color="#39b54a"/><stop offset="1" stop-color="#009245"/></linearGradient><path fill="url(#f)" d="M0 0l210.9 300H300L90 0z"/><linearGradient id="g" gradientUnits="userSpaceOnUse" x1="225" y1="150" x2="300" y2="150"><stop offset="0" stop-color="#14578f"/><stop offset="1" stop-color="#143a8f"/></linearGradient><path fill="url(#g)" d="M225 0h75v300h-75z"/></g></switch></svg>