<svg aria-hidden="true" style="position: absolute; width: 0; height: 0; overflow: hidden;" version="1.1" xmlns="http://www.w3.org/2000/svg" xmlns:xlink="http://www.w3.org/1999/xlink">
<defs>
<symbol id="icon-arrow-down-sign-to-navigate" viewBox="0 0 32 32">
<path d="M16 25.12c-0.573 0-1.147-0.219-1.584-0.656l-13.759-13.759c-0.875-0.875-0.875-2.294 0-3.169s2.294-0.875 3.169 0l12.174 12.175 12.174-12.175c0.875-0.875 2.294-0.875 3.169 0s0.876 2.294 0 3.169l-13.759 13.759c-0.437 0.437-1.011 0.656-1.584 0.656z"></path>
</symbol>
<symbol id="icon-bow" viewBox="0 0 32 32">
<path d="M0.207 18.587c0.060 0.133 0.19 0.223 0.342 0.225h4.861c0.112-0.001 0.212-0.051 0.28-0.129l0-0 2.043-2.308h0.647l4.161 12.692c0.051 0.151 0.191 0.258 0.356 0.258v0c7.222 0 13.12-5.775 13.319-12.95h0.908v2.423c-0 0.004-0 0.008-0 0.013 0 0.137 0.076 0.257 0.189 0.319l0.002 0.001c0.048 0.026 0.106 0.042 0.167 0.042v0c0.080 0 0.154-0.026 0.214-0.069l-0.001 0.001 3.973-2.798c0.096-0.069 0.158-0.18 0.158-0.306s-0.063-0.238-0.158-0.306l-0.001-0.001-3.975-2.798c-0.058-0.043-0.131-0.068-0.209-0.068-0.061 0-0.119 0.016-0.169 0.043l0.002-0.001c-0.114 0.063-0.191 0.183-0.191 0.32 0 0.004 0 0.009 0 0.013l-0-0.001v2.423h-0.908c-0.199-7.175-6.097-12.95-13.319-12.95-0.165 0-0.306 0.107-0.355 0.256l-0.001 0.003-4.161 12.692h-0.647l-2.043-2.308c-0.069-0.079-0.169-0.128-0.28-0.13h-4.861c-0.208 0.002-0.375 0.171-0.375 0.379 0 0.096 0.036 0.184 0.095 0.251l-0-0 1.934 2.182-1.934 2.184c-0.059 0.066-0.094 0.154-0.094 0.25 0 0.056 0.012 0.109 0.034 0.157l-0.001-0.002zM27.875 13.924l2.948 2.076-2.948 2.076zM5.241 18.063h-1.466l1.49-1.688h1.466zM13.169 28.572l-3.999-12.197h16.297c-0.196 6.671-5.614 12.055-12.298 12.197zM13.169 3.428c6.684 0.142 12.102 5.526 12.298 12.197h-16.297zM6.731 15.625h-1.466l-1.49-1.688h1.466zM1.383 13.938h1.39l1.49 1.688h-1.39zM2.873 16.375h1.39l-1.49 1.688h-1.39z"></path>
</symbol>
<symbol id="icon-btt" viewBox="0 0 32 32">
<path d="M17.168 7.274c-0.16-0.24-0.39-0.419-0.656-0.512-0.141-0.058-0.294-0.086-0.461-0.086h-0.006l-0.045-0.003c-0.022 0-0.038 0.003-0.061 0.006-0.16 0-0.31 0.029-0.442 0.080-0.278 0.096-0.509 0.278-0.653 0.506l-9.632 9.654c-0.224 0.224-0.349 0.531-0.349 0.861 0 0.368 0.157 0.73 0.422 0.998 0.266 0.266 0.608 0.413 0.966 0.413 0.33 0 0.64-0.125 0.874-0.358 0.010-0.013 0.019-0.019 0.032-0.032 0.026-0.019 0.051-0.048 0.064-0.067l7.411-7.405 0.016 17.805c-0.006 0.038-0.006 0.074-0.003 0.109l0.003 0.042c0 0.669 0.586 1.194 1.334 1.194 0.755 0 1.366-0.534 1.366-1.194l0.013-17.955 7.405 7.392c0.022 0.029 0.051 0.054 0.080 0.080l0.032 0.032c0.23 0.234 0.541 0.358 0.87 0.358 0.358 0 0.701-0.147 0.966-0.413 0.534-0.531 0.566-1.366 0.077-1.856l-9.626-9.648z"></path>
<path d="M30.464 1.52h-28.928c-0.672 0-1.216 0.544-1.216 1.213s0.544 1.216 1.216 1.216h28.928c0.669 0 1.216-0.544 1.216-1.216 0-0.666-0.544-1.213-1.216-1.213z"></path>
</symbol>
<symbol id="icon-human-brain" viewBox="0 0 32 32">
<path d="M19.167 16.919c0.324 0.163 0.509 0.513 0.463 0.873-0.027 0.21 0.12 0.403 0.331 0.431s0.403-0.12 0.431-0.331c0.089-0.683-0.264-1.349-0.879-1.659-0.009-0.005-0.018-0.009-0.027-0.013-0.102-0.28-0.051-0.592 0.135-0.824 0.133-0.165 0.106-0.407-0.059-0.54s-0.407-0.106-0.54 0.059c-0.26 0.323-0.385 0.735-0.349 1.148-0.302 0.021-0.591 0.126-0.837 0.302-0.17 0.125-0.208 0.363-0.085 0.534s0.361 0.211 0.534 0.089c0.259-0.186 0.598-0.212 0.883-0.070z"></path>
<path d="M21.865 15.224c0.148 0.152 0.391 0.155 0.543 0.007 0.079-0.078 0.149-0.165 0.206-0.261 0.191 0.079 0.41-0.008 0.495-0.195s0.008-0.41-0.177-0.502c-0.247-0.121-0.374-0.398-0.306-0.665 0.053-0.205-0.071-0.415-0.276-0.467s-0.415 0.071-0.468 0.276c-0.087 0.342-0.037 0.704 0.14 1.009-0.027 0.097-0.080 0.185-0.152 0.255-0.151 0.148-0.154 0.391-0.006 0.543z"></path>
<path d="M18.634 12.308c0.105 0.037 0.213 0.062 0.324 0.073 0.001 0.085 0.010 0.169 0.026 0.252 0.027 0.135 0.075 0.264 0.141 0.384 0.066 0.121 0.191 0.198 0.329 0.201s0.267-0.068 0.338-0.186 0.073-0.266 0.005-0.386c-0.111-0.202-0.092-0.451 0.049-0.634s0.378-0.264 0.602-0.207c0.134 0.036 0.276-0.003 0.372-0.101s0.134-0.241 0.096-0.374c-0.038-0.133-0.143-0.235-0.278-0.268-0.551-0.141-1.131 0.079-1.45 0.55-0.187 0.033-0.379-0.029-0.512-0.165-0.095-0.1-0.237-0.142-0.372-0.108s-0.24 0.137-0.277 0.271c-0.037 0.133 0.001 0.277 0.099 0.374 0.142 0.145 0.314 0.256 0.506 0.325z"></path>
<path d="M20.146 19.996c-0.166-0.026-0.323-0.090-0.461-0.186-0.174-0.122-0.413-0.079-0.535 0.094s-0.079 0.413 0.094 0.535c0.232 0.163 0.498 0.271 0.779 0.316 0.22 0.036 0.445 0.032 0.663-0.012 0.035 0.378 0.182 0.738 0.423 1.031 0.135 0.164 0.377 0.187 0.541 0.052s0.187-0.377 0.052-0.541c-0.229-0.278-0.309-0.649-0.218-0.997 0.003-0.011 0.006-0.021 0.009-0.032 0.053-0.178 0.15-0.341 0.282-0.472 0.15-0.15 0.15-0.393 0-0.543s-0.393-0.15-0.543-0c-0.188 0.188-0.334 0.413-0.429 0.662-0.205 0.098-0.434 0.131-0.658 0.094z"></path>
<path d="M20.158 24.141c0.714 0.384 1.577 0.364 2.273-0.052s1.122-1.167 1.121-1.977v-0.657c0.948-0.376 1.633-1.216 1.811-2.22s-0.176-2.028-0.936-2.707c0.105-0.105 0.2-0.22 0.282-0.343 0.677-1.018 0.4-2.393-0.619-3.070-0.078-0.052-0.16-0.098-0.244-0.139 0.25-0.992-0.034-2.043-0.748-2.776s-1.759-1.041-2.757-0.816c0.073-0.729-0.261-1.438-0.869-1.846s-1.392-0.447-2.038-0.103c-0.646 0.345-1.050 1.017-1.051 1.749v13.184c-0 0.893 0.515 1.706 1.324 2.085s1.763 0.258 2.45-0.312zM17.152 22.368v-13.184c-0-0.506 0.313-0.959 0.786-1.138s1.008-0.046 1.342 0.333c0.335 0.379 0.399 0.926 0.163 1.373-0.067 0.042-0.134 0.087-0.198 0.134-0.17 0.126-0.205 0.366-0.079 0.536s0.365 0.207 0.536 0.082c0.829-0.611 1.974-0.557 2.742 0.13s0.949 1.818 0.434 2.71c-0.106 0.184-0.044 0.418 0.14 0.525s0.419 0.043 0.525-0.14c0.007-0.012 0.013-0.024 0.019-0.036 0.035 0.019 0.070 0.040 0.103 0.062 0.384 0.254 0.625 0.677 0.646 1.137s-0.179 0.903-0.538 1.192c-0.406-0.203-0.854-0.308-1.308-0.307-0.212 0-0.384 0.172-0.384 0.384s0.172 0.384 0.384 0.384c1.202 0 2.176 0.974 2.176 2.176s-0.974 2.176-2.176 2.176c-0.212 0-0.384 0.172-0.384 0.384s0.172 0.384 0.384 0.384c0.107-0 0.214-0.006 0.32-0.018v0.466c0 0.848-0.688 1.536-1.536 1.536s-1.536-0.688-1.536-1.536c0-0.212-0.172-0.384-0.384-0.384s-0.384 0.172-0.384 0.384c-0 0.568 0.21 1.116 0.59 1.538-0.471 0.311-1.076 0.339-1.574 0.071s-0.808-0.788-0.808-1.353z"></path>
<path d="M10.88 24.416c0.381 0 0.755-0.094 1.090-0.275 0.687 0.57 1.642 0.692 2.45 0.312s1.324-1.192 1.323-2.085v-13.184c0.004-0.735-0.399-1.412-1.047-1.759s-1.435-0.307-2.045 0.104c-0.61 0.411-0.942 1.125-0.864 1.856-0.998-0.227-2.043 0.081-2.759 0.813s-0.998 1.785-0.746 2.778c-0.084 0.041-0.165 0.088-0.244 0.139-1.018 0.677-1.296 2.051-0.619 3.070 0.082 0.123 0.176 0.238 0.282 0.343-0.76 0.679-1.114 1.704-0.936 2.707s0.864 1.843 1.811 2.22v0.657c0.002 1.272 1.032 2.303 2.304 2.304zM7.488 18.72c0.002-1.201 0.975-2.175 2.176-2.176 0.212 0 0.384-0.172 0.384-0.384s-0.172-0.384-0.384-0.384c-0.454-0.001-0.902 0.105-1.308 0.307-0.359-0.289-0.558-0.732-0.537-1.191s0.26-0.883 0.644-1.137c0.034-0.023 0.068-0.043 0.103-0.062 0.006 0.012 0.013 0.024 0.019 0.036 0.106 0.184 0.341 0.246 0.525 0.14s0.246-0.341 0.14-0.525c-0.515-0.893-0.334-2.024 0.434-2.71s1.912-0.741 2.742-0.13c0.171 0.125 0.41 0.089 0.536-0.082s0.090-0.41-0.079-0.536c-0.065-0.048-0.131-0.092-0.198-0.134-0.236-0.447-0.171-0.994 0.164-1.373s0.869-0.512 1.342-0.333 0.786 0.632 0.786 1.138v13.184c0.001 0.565-0.31 1.085-0.808 1.353s-1.102 0.24-1.574-0.071c0.38-0.422 0.59-0.97 0.59-1.538 0-0.212-0.172-0.384-0.384-0.384s-0.384 0.172-0.384 0.384c0 0.848-0.688 1.536-1.536 1.536s-1.536-0.688-1.536-1.536v-0.466c0.107 0.012 0.213 0.017 0.32 0.018 0.212 0 0.384-0.172 0.384-0.384s-0.172-0.384-0.384-0.384c-1.201-0.002-2.175-0.975-2.176-2.176z"></path>
<path d="M13.455 16.063c0.036-0.413-0.089-0.825-0.349-1.148-0.133-0.165-0.374-0.192-0.54-0.059s-0.192 0.374-0.059 0.54c0.186 0.232 0.237 0.544 0.135 0.824-0.009 0.004-0.018 0.008-0.027 0.013-0.616 0.31-0.968 0.975-0.879 1.659 0.028 0.21 0.22 0.358 0.431 0.331s0.358-0.221 0.331-0.431c-0.038-0.291 0.076-0.581 0.303-0.768s0.533-0.244 0.812-0.152c0.083 0.027 0.161 0.067 0.232 0.118 0.111 0.081 0.258 0.097 0.383 0.041s0.212-0.176 0.225-0.313c0.014-0.137-0.047-0.271-0.16-0.351-0.245-0.176-0.535-0.281-0.837-0.302z"></path>
<path d="M10.257 14.681c-0.072-0.070-0.124-0.158-0.152-0.255 0.177-0.305 0.227-0.668 0.14-1.010-0.053-0.205-0.262-0.329-0.467-0.277s-0.329 0.262-0.276 0.467c0.068 0.266-0.060 0.543-0.306 0.665-0.186 0.092-0.265 0.315-0.179 0.503s0.306 0.274 0.497 0.194c0.058 0.095 0.127 0.182 0.207 0.261 0.098 0.097 0.24 0.134 0.373 0.098s0.236-0.142 0.27-0.276c0.034-0.134-0.007-0.275-0.106-0.371z"></path>
<path d="M11.679 11.804c0.193-0.049 0.398 0.004 0.542 0.142s0.208 0.339 0.169 0.534c-0.011 0.058-0.032 0.114-0.060 0.165-0.068 0.12-0.066 0.268 0.005 0.386s0.2 0.19 0.338 0.187c0.138-0.003 0.264-0.080 0.329-0.201 0.066-0.12 0.114-0.25 0.141-0.384 0.017-0.083 0.025-0.167 0.026-0.252 0.315-0.031 0.608-0.171 0.829-0.398 0.098-0.098 0.136-0.241 0.099-0.374s-0.143-0.237-0.277-0.271c-0.134-0.034-0.276 0.007-0.372 0.107-0.061 0.062-0.135 0.11-0.217 0.139-0.094 0.034-0.196 0.043-0.294 0.025-0.319-0.471-0.899-0.691-1.45-0.55-0.134 0.033-0.24 0.136-0.278 0.268s-0.001 0.276 0.096 0.374c0.097 0.098 0.239 0.137 0.373 0.101z"></path>
<path d="M10.352 19.784c0.132 0.131 0.229 0.294 0.281 0.472 0.003 0.011 0.006 0.022 0.009 0.033 0.092 0.348 0.011 0.719-0.217 0.997-0.135 0.163-0.112 0.406 0.052 0.541s0.406 0.112 0.54-0.052c0.241-0.293 0.389-0.652 0.423-1.031 0.502 0.099 1.023-0.011 1.442-0.304 0.174-0.122 0.216-0.361 0.094-0.535s-0.361-0.216-0.535-0.094c-0.329 0.23-0.756 0.265-1.118 0.093-0.095-0.248-0.241-0.474-0.429-0.662-0.15-0.15-0.393-0.15-0.543 0s-0.15 0.393 0 0.543z"></path>
<path d="M30.082 13.801c-0.15-0.15-0.393-0.149-0.543 0.001s-0.149 0.393 0.001 0.543l1.21 1.207h-3.423c-0.212 0-0.384 0.172-0.384 0.384s0.172 0.384 0.384 0.384h3.423l-1.21 1.206c-0.15 0.15-0.151 0.393-0.001 0.543s0.393 0.151 0.543 0.001l1.869-1.863c0.072-0.072 0.113-0.17 0.113-0.272s-0.041-0.2-0.113-0.272z"></path>
<path d="M2.317 18.182c0.155 0 0.296-0.094 0.355-0.237s0.026-0.309-0.084-0.419l-1.21-1.206h3.423c0.212 0 0.384-0.172 0.384-0.384s-0.172-0.384-0.384-0.384h-3.423l1.21-1.207c0.15-0.15 0.151-0.393 0.001-0.543s-0.393-0.151-0.543-0.001l-1.869 1.863c-0.072 0.072-0.113 0.17-0.113 0.272s0.040 0.2 0.113 0.272l1.869 1.863c0.072 0.072 0.169 0.112 0.271 0.112z"></path>
<path d="M15.792 31.823c0.072 0.072 0.17 0.113 0.272 0.113s0.2-0.041 0.272-0.113l1.863-1.869c0.15-0.15 0.149-0.393-0.001-0.543s-0.393-0.149-0.543 0.001l-1.206 1.211v-3.423c0-0.212-0.172-0.384-0.384-0.384s-0.384 0.172-0.384 0.384v3.423l-1.207-1.211c-0.15-0.15-0.393-0.151-0.543-0.001s-0.151 0.393-0.001 0.543z"></path>
<path d="M16.064 5.056c0.212 0 0.384-0.172 0.384-0.384v-3.423l1.207 1.211c0.15 0.15 0.393 0.151 0.543 0.001s0.151-0.393 0.001-0.543l-1.863-1.869c-0.072-0.072-0.17-0.113-0.272-0.113s-0.2 0.041-0.272 0.113l-1.862 1.869c-0.15 0.15-0.149 0.393 0.001 0.543s0.393 0.149 0.543-0.001l1.206-1.211v3.423c0 0.212 0.172 0.384 0.384 0.384z"></path>
<path d="M24.468 26.59c-0.212 0-0.384 0.172-0.384 0.384s0.172 0.384 0.384 0.384l2.639 0.005c0.102 0 0.2-0.041 0.272-0.113s0.113-0.17 0.112-0.272l-0.005-2.639c-0-0.212-0.172-0.383-0.384-0.383h-0c-0.212 0-0.384 0.173-0.384 0.385l0.003 1.709-2.421-2.421c-0.15-0.148-0.392-0.147-0.541 0.002s-0.15 0.39-0.002 0.541l2.421 2.421-1.709-0.003z"></path>
<path d="M7.66 5.282c0.212 0 0.384-0.172 0.384-0.384s-0.171-0.384-0.384-0.384l-2.638-0.005c-0.102-0-0.2 0.040-0.272 0.112s-0.113 0.17-0.112 0.272l0.005 2.638c0 0.212 0.172 0.383 0.384 0.383h0c0.212-0 0.384-0.173 0.383-0.385l-0.003-1.709 2.421 2.42c0.097 0.098 0.239 0.137 0.372 0.102s0.238-0.139 0.273-0.273c0.036-0.133-0.004-0.275-0.102-0.372l-2.421-2.421 1.709 0.003z"></path>
<path d="M8.371 23.629c-0.15-0.15-0.393-0.15-0.543 0l-2.42 2.421 0.003-1.709c0-0.212-0.171-0.384-0.383-0.385h-0c-0.212 0-0.384 0.172-0.384 0.383l-0.005 2.639c-0 0.102 0.040 0.2 0.112 0.272s0.17 0.113 0.272 0.113h0l2.639-0.005c0.212 0 0.384-0.172 0.384-0.384s-0.172-0.384-0.384-0.384h-0.001l-1.709 0.003 2.42-2.421c0.15-0.15 0.15-0.393 0-0.543z"></path>
<path d="M27.102 7.916c0.212 0 0.384-0.171 0.384-0.383l0.005-2.638c0-0.102-0.040-0.2-0.112-0.272s-0.17-0.113-0.272-0.113h-0l-2.639 0.005c-0.212 0-0.384 0.172-0.384 0.384s0.172 0.384 0.384 0.384h0.001l1.709-0.003-2.421 2.42c-0.098 0.097-0.137 0.239-0.102 0.372s0.14 0.238 0.273 0.273c0.133 0.035 0.275-0.004 0.372-0.102l2.421-2.42-0.003 1.709c-0 0.212 0.171 0.384 0.384 0.385z"></path>
</symbol>
<symbol id="icon-identify" viewBox="0 0 32 32">
<path fill="#f0bc5e" style="fill: var(--color1, #f0bc5e)" d="M16 10.5c-1.93 0-3.5-1.57-3.5-3.5s1.57-3.5 3.5-3.5 3.5 1.571 3.5 3.5-1.57 3.5-3.5 3.5z"></path>
<path fill="#000" style="fill: var(--color2, #000)" d="M19.529 13.601c0.087-0.682 0.392-1.313 0.886-1.808l0.182-0.182c1.227-1.227 1.904-2.86 1.904-4.611 0-3.584-2.916-6.5-6.5-6.5s-6.5 2.916-6.5 6.514c0 1.737 0.676 3.369 1.904 4.596l0.182 0.182c0.494 0.495 0.799 1.126 0.886 1.808-0.566 0.215-0.972 0.759-0.972 1.399 0 0.651 0.419 1.201 1 1.408v9.71l2.329 4.658c0.223 0.446 0.672 0.724 1.171 0.724s0.948-0.277 1.171-0.724l2.329-4.659v-9.71c0.581-0.207 1-0.757 1-1.408 0-0.64-0.405-1.184-0.971-1.399zM12.111 10.904c-1.039-1.039-1.611-2.42-1.611-3.904 0-3.033 2.467-5.5 5.5-5.5s5.5 2.467 5.5 5.514c0 1.469-0.572 2.851-1.611 3.889l-0.182 0.182c-0.659 0.659-1.064 1.503-1.174 2.414h-1.034v-3.342c-0.311 0.149-0.647 0.252-1 0.303v3.040h-1v-3.040c-0.353-0.051-0.689-0.154-1-0.303v3.342h-1.034c-0.11-0.911-0.514-1.755-1.174-2.414zM18.5 25.5h-1v-9h1zM16.5 25.5h-1v-9h1zM14.5 25.5h-1v-9h1zM16.276 30.329c-0.105 0.211-0.447 0.211-0.553 0l-1.915-3.829h4.382zM19 15.5h-6c-0.275 0-0.5-0.224-0.5-0.5s0.225-0.5 0.5-0.5h6c0.276 0 0.5 0.224 0.5 0.5s-0.224 0.5-0.5 0.5z"></path>
<path fill="#000" style="fill: var(--color2, #000)" d="M19.854 4.354l-0.707-0.707-3.646 3.647-0.646-0.646-0.707 0.707 1.354 1.353z"></path>
<path fill="#000" style="fill: var(--color2, #000)" d="M4.5 28.256v-12.257h-1v12.257l-1.576-2.521-0.848 0.53 2.924 4.678 2.924-4.678-0.848-0.53z"></path>
<path fill="#000" style="fill: var(--color2, #000)" d="M9 23.756v-12.257h-1v12.257l-1.576-2.521-0.848 0.53 2.924 4.678 2.924-4.678-0.848-0.53z"></path>
<path fill="#000" style="fill: var(--color2, #000)" d="M3.5 14h1v1h-1z"></path>
<path fill="#000" style="fill: var(--color2, #000)" d="M3.5 10h1v1h-1z"></path>
<path fill="#000" style="fill: var(--color2, #000)" d="M3.5 12h1v1h-1z"></path>
<path fill="#000" style="fill: var(--color2, #000)" d="M30.924 13.735l-2.924-4.678-2.924 4.678 0.848 0.53 1.576-2.521v12.257h1v-12.257l1.576 2.521z"></path>
<path fill="#000" style="fill: var(--color2, #000)" d="M20.576 18.235l0.848 0.53 1.576-2.521v12.256h1v-12.257l1.576 2.521 0.848-0.53-2.924-4.678z"></path>
<path fill="#000" style="fill: var(--color2, #000)" d="M27.5 29h1v1h-1z"></path>
<path fill="#000" style="fill: var(--color2, #000)" d="M27.5 25h1v1h-1z"></path>
<path fill="#000" style="fill: var(--color2, #000)" d="M27.5 27h1v1h-1z"></path>
</symbol>
<symbol id="icon-switch" viewBox="0 0 32 32">
<path d="M24.333 8h-4.667c-0.405 0-0.769-0.244-0.924-0.617-0.153-0.373-0.069-0.804 0.217-1.089l4.667-4.667c0.285-0.287 0.716-0.372 1.089-0.217s0.617 0.52 0.617 0.924v4.667c0 0.552-0.448 1-1 1z"></path>
<path d="M7.667 17.333c-0.129 0-0.259-0.025-0.383-0.076-0.373-0.155-0.617-0.52-0.617-0.924v-4.667c0-0.552 0.448-1 1-1h4.667c0.405 0 0.769 0.244 0.924 0.617 0.153 0.373 0.069 0.804-0.217 1.089l-4.667 4.667c-0.191 0.192-0.447 0.293-0.707 0.293z"></path>
<path d="M9.333 22c0 1.841-1.492 3.333-3.333 3.333s-3.333-1.492-3.333-3.333c0-1.841 1.492-3.333 3.333-3.333s3.333 1.492 3.333 3.333z"></path>
<path d="M8.333 26.667h-4.667c-2.023 0-3.667 1.644-3.667 3.667v0.667c0 0.552 0.448 1 1 1h10c0.552 0 1-0.448 1-1v-0.667c0-2.023-1.644-3.667-3.667-3.667z"></path>
<path d="M29.333 22c0 1.841-1.492 3.333-3.333 3.333s-3.333-1.492-3.333-3.333c0-1.841 1.492-3.333 3.333-3.333s3.333 1.492 3.333 3.333z"></path>
<path d="M28.333 26.667h-4.667c-2.023 0-3.667 1.644-3.667 3.667v0.667c0 0.552 0.448 1 1 1h10c0.552 0 1-0.448 1-1v-0.667c0-2.023-1.644-3.667-3.667-3.667z"></path>
<path d="M8.215 8.827c-0.103 0-0.205-0.012-0.309-0.036-0.716-0.171-1.159-0.889-0.989-1.605 1.005-4.231 4.741-7.185 9.084-7.185 2.472 0 4.799 0.956 6.552 2.693 0.523 0.519 0.528 1.363 0.009 1.885-0.52 0.523-1.361 0.528-1.887 0.009-1.251-1.239-2.911-1.921-4.675-1.921-3.101 0-5.771 2.111-6.489 5.136-0.147 0.612-0.693 1.024-1.296 1.024z"></path>
<path d="M16 18.667c-2.472 0-4.799-0.956-6.552-2.693-0.523-0.519-0.528-1.363-0.009-1.885 0.52-0.524 1.361-0.528 1.887-0.009 1.251 1.239 2.911 1.921 4.675 1.921 3.101 0 5.771-2.111 6.489-5.136 0.171-0.717 0.891-1.153 1.605-0.988 0.716 0.169 1.159 0.889 0.988 1.605-1.004 4.231-4.74 7.185-9.083 7.185z"></path>
</symbol>
<symbol id="icon-upload" viewBox="0 0 32 32">
<path d="M8.156 11.379l-1.768-1.768 9.612-9.612 9.612 9.612-1.768 1.768-6.594-6.594v22.232h-2.5v-22.232zM0 29.455v2.5h32v-2.5z"></path>
</symbol>
<symbol id="icon-education" viewBox="0 0 20 20">
<path d="M3.33 8l6.67 4 10-6-10-6-10 6h10v2h-6.67zM0 8v8l2-2.22v-4.58l-2-1.2zM10 20l-7-4.2v-6l7 4.2 7-4.2v6l-7 4.2z"></path>
</symbol>
<symbol id="icon-pencil2" viewBox="0 0 32 32">
<path d="M12 20l4-2 14-14-2-2-14 14-2 4zM9.041 27.097c-0.989-2.085-2.052-3.149-4.137-4.137l3.097-8.525 4-2.435 12-12h-6l-12 12-6 20 20-6 12-12v-6l-12 12-2.435 4z"></path>
</symbol>
<symbol id="icon-book" viewBox="0 0 32 32">
<path d="M28 4v26h-21c-1.657 0-3-1.343-3-3s1.343-3 3-3h19v-24h-20c-2.2 0-4 1.8-4 4v24c0 2.2 1.8 4 4 4h24v-28h-2z"></path>
<path d="M7.002 26v0c-0.001 0-0.001 0-0.002 0-0.552 0-1 0.448-1 1s0.448 1 1 1c0.001 0 0.001-0 0.002-0v0h18.997v-2h-18.997z"></path>
</symbol>
<symbol id="icon-download" viewBox="0 0 32 32">
<path d="M16 18l8-8h-6v-8h-4v8h-6zM23.273 14.727l-2.242 2.242 8.128 3.031-13.158 4.907-13.158-4.907 8.127-3.031-2.242-2.242-8.727 3.273v8l16 6 16-6v-8z"></path>
</symbol>
<symbol id="icon-briefcase" viewBox="0 0 32 32">
<path d="M30 8h-8v-2c0-1.1-0.9-2-2-2h-8c-1.1 0-2 0.9-2 2v2h-8c-1.1 0-2 0.9-2 2v18c0 1.1 0.9 2 2 2h28c1.1 0 2-0.9 2-2v-18c0-1.1-0.9-2-2-2zM12 6.004c0.001-0.001 0.002-0.003 0.004-0.004h7.993c0.001 0.001 0.003 0.002 0.004 0.004v1.996h-8v-1.996zM30 16h-4v3c0 0.55-0.45 1-1 1h-2c-0.55 0-1-0.45-1-1v-3h-12v3c0 0.55-0.45 1-1 1h-2c-0.55 0-1-0.45-1-1v-3h-4v-2h28v2z"></path>
</symbol>
<symbol id="icon-heart" viewBox="0 0 32 32">
<path d="M23.6 2c-3.363 0-6.258 2.736-7.599 5.594-1.342-2.858-4.237-5.594-7.601-5.594-4.637 0-8.4 3.764-8.4 8.401 0 9.433 9.516 11.906 16.001 21.232 6.13-9.268 15.999-12.1 15.999-21.232 0-4.637-3.763-8.401-8.4-8.401z"></path>
</symbol>
<symbol id="icon-cross" viewBox="0 0 32 32">
<path d="M31.708 25.708c-0-0-0-0-0-0l-9.708-9.708 9.708-9.708c0-0 0-0 0-0 0.105-0.105 0.18-0.227 0.229-0.357 0.133-0.356 0.057-0.771-0.229-1.057l-4.586-4.586c-0.286-0.286-0.702-0.361-1.057-0.229-0.13 0.048-0.252 0.124-0.357 0.228 0 0-0 0-0 0l-9.708 9.708-9.708-9.708c-0-0-0-0-0-0-0.105-0.104-0.227-0.18-0.357-0.228-0.356-0.133-0.771-0.057-1.057 0.229l-4.586 4.586c-0.286 0.286-0.361 0.702-0.229 1.057 0.049 0.13 0.124 0.252 0.229 0.357 0 0 0 0 0 0l9.708 9.708-9.708 9.708c-0 0-0 0-0 0-0.104 0.105-0.18 0.227-0.229 0.357-0.133 0.355-0.057 0.771 0.229 1.057l4.586 4.586c0.286 0.286 0.702 0.361 1.057 0.229 0.13-0.049 0.252-0.124 0.357-0.229 0-0 0-0 0-0l9.708-9.708 9.708 9.708c0 0 0 0 0 0 0.105 0.105 0.227 0.18 0.357 0.229 0.356 0.133 0.771 0.057 1.057-0.229l4.586-4.586c0.286-0.286 0.362-0.702 0.229-1.057-0.049-0.13-0.124-0.252-0.229-0.357z"></path>
</symbol>
<symbol id="icon-enter" viewBox="0 0 32 32">
<path d="M12 16h-10v-4h10v-4l6 6-6 6zM32 0v26l-12 6v-6h-12v-8h2v6h10v-18l8-4h-18v8h-2v-10z"></path>
</symbol>
<symbol id="icon-arrow-up2" viewBox="0 0 32 32">
<path d="M27.414 12.586l-10-10c-0.781-0.781-2.047-0.781-2.828 0l-10 10c-0.781 0.781-0.781 2.047 0 2.828s2.047 0.781 2.828 0l6.586-6.586v19.172c0 1.105 0.895 2 2 2s2-0.895 2-2v-19.172l6.586 6.586c0.39 0.39 0.902 0.586 1.414 0.586s1.024-0.195 1.414-0.586c0.781-0.781 0.781-2.047 0-2.828z"></path>
</symbol>
<symbol id="icon-arrow-right2" viewBox="0 0 32 32">
<path d="M19.414 27.414l10-10c0.781-0.781 0.781-2.047 0-2.828l-10-10c-0.781-0.781-2.047-0.781-2.828 0s-0.781 2.047 0 2.828l6.586 6.586h-19.172c-1.105 0-2 0.895-2 2s0.895 2 2 2h19.172l-6.586 6.586c-0.39 0.39-0.586 0.902-0.586 1.414s0.195 1.024 0.586 1.414c0.781 0.781 2.047 0.781 2.828 0z"></path>
</symbol>
<symbol id="icon-arrow-down2" viewBox="0 0 32 32">
<path d="M27.414 19.414l-10 10c-0.781 0.781-2.047 0.781-2.828 0l-10-10c-0.781-0.781-0.781-2.047 0-2.828s2.047-0.781 2.828 0l6.586 6.586v-19.172c0-1.105 0.895-2 2-2s2 0.895 2 2v19.172l6.586-6.586c0.39-0.39 0.902-0.586 1.414-0.586s1.024 0.195 1.414 0.586c0.781 0.781 0.781 2.047 0 2.828z"></path>
</symbol>
<symbol id="icon-arrow-left2" viewBox="0 0 32 32">
<path d="M12.586 27.414l-10-10c-0.781-0.781-0.781-2.047 0-2.828l10-10c0.781-0.781 2.047-0.781 2.828 0s0.781 2.047 0 2.828l-6.586 6.586h19.172c1.105 0 2 0.895 2 2s-0.895 2-2 2h-19.172l6.586 6.586c0.39 0.39 0.586 0.902 0.586 1.414s-0.195 1.024-0.586 1.414c-0.781 0.781-2.047 0.781-2.828 0z"></path>
</symbol>
<symbol id="icon-circle-up" viewBox="0 0 32 32">
<path d="M0 16c0 8.837 7.163 16 16 16s16-7.163 16-16-7.163-16-16-16-16 7.163-16 16zM29 16c0 7.18-5.82 13-13 13s-13-5.82-13-13 5.82-13 13-13 13 5.82 13 13z"></path>
<path d="M22.086 20.914l2.829-2.829-8.914-8.914-8.914 8.914 2.828 2.828 6.086-6.086z"></path>
</symbol>
<symbol id="icon-circle-right" viewBox="0 0 32 32">
<path d="M16 0c-8.837 0-16 7.163-16 16s7.163 16 16 16 16-7.163 16-16-7.163-16-16-16zM16 29c-7.18 0-13-5.82-13-13s5.82-13 13-13 13 5.82 13 13-5.82 13-13 13z"></path>
<path d="M11.086 22.086l2.829 2.829 8.914-8.914-8.914-8.914-2.828 2.828 6.086 6.086z"></path>
</symbol>
<symbol id="icon-circle-down" viewBox="0 0 32 32">
<path d="M32 16c0-8.837-7.163-16-16-16s-16 7.163-16 16 7.163 16 16 16 16-7.163 16-16zM3 16c0-7.18 5.82-13 13-13s13 5.82 13 13-5.82 13-13 13-13-5.82-13-13z"></path>
<path d="M9.914 11.086l-2.829 2.829 8.914 8.914 8.914-8.914-2.828-2.828-6.086 6.086z"></path>
</symbol>
<symbol id="icon-circle-left" viewBox="0 0 32 32">
<path d="M16 32c8.837 0 16-7.163 16-16s-7.163-16-16-16-16 7.163-16 16 7.163 16 16 16zM16 3c7.18 0 13 5.82 13 13s-5.82 13-13 13-13-5.82-13-13 5.82-13 13-13z"></path>
<path d="M20.914 9.914l-2.829-2.829-8.914 8.914 8.914 8.914 2.828-2.828-6.086-6.086z"></path>
</symbol>
<symbol id="icon-share" viewBox="0 0 32 32">
<path d="M8 20c0 0 1.838-6 12-6v6l12-8-12-8v6c-8 0-12 4.99-12 10zM22 24h-18v-12h3.934c0.315-0.372 0.654-0.729 1.015-1.068 1.374-1.287 3.018-2.27 4.879-2.932h-13.827v20h26v-8.395l-4 2.667v1.728z"></path>
</symbol>
<symbol id="icon-embed" viewBox="0 0 32 32">
<path d="M18 23l3 3 10-10-10-10-3 3 7 7z"></path>
<path d="M14 9l-3-3-10 10 10 10 3-3-7-7z"></path>
</symbol>
<symbol id="icon-embed2" viewBox="0 0 40 32">
<path d="M26 23l3 3 10-10-10-10-3 3 7 7z"></path>
<path d="M14 9l-3-3-10 10 10 10 3-3-7-7z"></path>
<path d="M21.916 4.704l2.171 0.592-6 22.001-2.171-0.592 6-22.001z"></path>
</symbol>
<symbol id="icon-share2" viewBox="0 0 32 32">
<path d="M27 22c-1.411 0-2.685 0.586-3.594 1.526l-13.469-6.734c0.041-0.258 0.063-0.522 0.063-0.791s-0.022-0.534-0.063-0.791l13.469-6.734c0.909 0.94 2.183 1.526 3.594 1.526 2.761 0 5-2.239 5-5s-2.239-5-5-5-5 2.239-5 5c0 0.269 0.022 0.534 0.063 0.791l-13.469 6.734c-0.909-0.94-2.183-1.526-3.594-1.526-2.761 0-5 2.239-5 5s2.239 5 5 5c1.411 0 2.685-0.586 3.594-1.526l13.469 6.734c-0.041 0.258-0.063 0.522-0.063 0.791 0 2.761 2.239 5 5 5s5-2.239 5-5c0-2.761-2.239-5-5-5z"></path>
</symbol>
<symbol id="icon-mail" viewBox="0 0 32 32">
<path d="M26.666 0h-21.332c-2.934 0-5.334 2.4-5.334 5.333v21.333c0 2.934 2.4 5.334 5.334 5.334h21.332c2.936 0 5.334-2.4 5.334-5.334v-21.333c0-2.934-2.398-5.333-5.334-5.333zM8 8h16c0.286 0 0.563 0.061 0.817 0.177l-8.817 10.286-8.817-10.287c0.254-0.116 0.531-0.177 0.817-0.177zM6 22v-12c0-0.042 0.002-0.084 0.004-0.125l5.864 6.842-5.8 5.8c-0.045-0.167-0.069-0.34-0.069-0.517zM24 24h-16c-0.177 0-0.35-0.024-0.517-0.069l5.691-5.691 2.826 3.297 2.826-3.297 5.691 5.691c-0.167 0.045-0.34 0.069-0.517 0.069zM26 22c0 0.177-0.024 0.35-0.069 0.517l-5.8-5.8 5.864-6.842c0.003 0.041 0.004 0.083 0.004 0.125v12z"></path>
</symbol>
<symbol id="icon-mail4" viewBox="0 0 32 32">
<path d="M16 0c-8.837 0-16 7.163-16 16s7.163 16 16 16 16-7.163 16-16-7.163-16-16-16zM8 8h16c0.286 0 0.563 0.061 0.817 0.177l-8.817 10.286-8.817-10.287c0.254-0.116 0.531-0.177 0.817-0.177zM6 22v-12c0-0.042 0.002-0.084 0.004-0.125l5.864 6.842-5.8 5.8c-0.045-0.167-0.069-0.34-0.069-0.517zM24 24h-16c-0.177 0-0.35-0.024-0.517-0.069l5.691-5.691 2.826 3.297 2.826-3.297 5.691 5.691c-0.167 0.045-0.34 0.069-0.517 0.069zM26 22c0 0.177-0.024 0.35-0.069 0.517l-5.8-5.8 5.865-6.842c0.003 0.041 0.004 0.083 0.004 0.125v12z"></path>
</symbol>
<symbol id="icon-github" viewBox="0 0 32 32">
<path d="M16 0.395c-8.836 0-16 7.163-16 16 0 7.069 4.585 13.067 10.942 15.182 0.8 0.148 1.094-0.347 1.094-0.77 0-0.381-0.015-1.642-0.022-2.979-4.452 0.968-5.391-1.888-5.391-1.888-0.728-1.849-1.776-2.341-1.776-2.341-1.452-0.993 0.11-0.973 0.11-0.973 1.606 0.113 2.452 1.649 2.452 1.649 1.427 2.446 3.743 1.739 4.656 1.33 0.143-1.034 0.558-1.74 1.016-2.14-3.554-0.404-7.29-1.777-7.29-7.907 0-1.747 0.625-3.174 1.649-4.295-0.166-0.403-0.714-2.030 0.155-4.234 0 0 1.344-0.43 4.401 1.64 1.276-0.355 2.645-0.532 4.005-0.539 1.359 0.006 2.729 0.184 4.008 0.539 3.054-2.070 4.395-1.64 4.395-1.64 0.871 2.204 0.323 3.831 0.157 4.234 1.026 1.12 1.647 2.548 1.647 4.295 0 6.145-3.743 7.498-7.306 7.895 0.574 0.497 1.085 1.47 1.085 2.963 0 2.141-0.019 3.864-0.019 4.391 0 0.426 0.288 0.925 1.099 0.768 6.354-2.118 10.933-8.113 10.933-15.18 0-8.837-7.164-16-16-16z"></path>
</symbol>
<symbol id="icon-linkedin" viewBox="0 0 32 32">
<path d="M29 0h-26c-1.65 0-3 1.35-3 3v26c0 1.65 1.35 3 3 3h26c1.65 0 3-1.35 3-3v-26c0-1.65-1.35-3-3-3zM12 26h-4v-14h4v14zM10 10c-1.106 0-2-0.894-2-2s0.894-2 2-2c1.106 0 2 0.894 2 2s-0.894 2-2 2zM26 26h-4v-8c0-1.106-0.894-2-2-2s-2 0.894-2 2v8h-4v-14h4v2.481c0.825-1.131 2.087-2.481 3.5-2.481 2.488 0 4.5 2.238 4.5 5v9z"></path>
</symbol>
<symbol id="icon-linkedin2" viewBox="0 0 32 32">
<path d="M12 12h5.535v2.837h0.079c0.77-1.381 2.655-2.837 5.464-2.837 5.842 0 6.922 3.637 6.922 8.367v9.633h-5.769v-8.54c0-2.037-0.042-4.657-3.001-4.657-3.005 0-3.463 2.218-3.463 4.509v8.688h-5.767v-18z"></path>
<path d="M2 12h6v18h-6v-18z"></path>
<path d="M8 7c0 1.657-1.343 3-3 3s-3-1.343-3-3c0-1.657 1.343-3 3-3s3 1.343 3 3z"></path>
</symbol>
<symbol id="icon-codepen" viewBox="0 0 32 32">
<path d="M29.555 11.501l-14-9.333c-0.336-0.224-0.774-0.224-1.109 0l-14 9.333c-0.278 0.185-0.445 0.498-0.445 0.832v9.333c0 0.334 0.167 0.647 0.445 0.832l14 9.333c0.168 0.112 0.361 0.168 0.555 0.168s0.387-0.056 0.555-0.168l14-9.333c0.278-0.185 0.445-0.498 0.445-0.832v-9.333c0-0.334-0.167-0.647-0.445-0.832zM15 20.465l-5.197-3.465 5.197-3.465 5.197 3.465-5.197 3.465zM16 11.798v-6.93l11.197 7.465-5.197 3.465-6-4zM14 11.798l-6 4-5.197-3.465 11.197-7.465v6.93zM6.197 17l-4.197 2.798v-5.596l4.197 2.798zM8 18.202l6 4v6.93l-11.197-7.465 5.197-3.465zM16 22.202l6-4 5.197 3.465-11.197 7.465v-6.93zM23.803 17l4.197-2.798v5.596l-4.197-2.798z"></path>
</symbol>
</defs>
</svg>
