<!-- Generated by IcoMoon.io -->
<svg version="1.1" xmlns="http://www.w3.org/2000/svg" width="32" height="32" viewBox="0 0 32 32">
<title>bow</title>
<path d="M0.207 18.587c0.060 0.133 0.19 0.223 0.342 0.225h4.861c0.112-0.001 0.212-0.051 0.28-0.129l0-0 2.043-2.308h0.647l4.161 12.692c0.051 0.151 0.191 0.258 0.356 0.258v0c7.222 0 13.12-5.775 13.319-12.95h0.908v2.423c-0 0.004-0 0.008-0 0.013 0 0.137 0.076 0.257 0.189 0.319l0.002 0.001c0.048 0.026 0.106 0.042 0.167 0.042v0c0.080 0 0.154-0.026 0.214-0.069l-0.001 0.001 3.973-2.798c0.096-0.069 0.158-0.18 0.158-0.306s-0.063-0.238-0.158-0.306l-0.001-0.001-3.975-2.798c-0.058-0.043-0.131-0.068-0.209-0.068-0.061 0-0.119 0.016-0.169 0.043l0.002-0.001c-0.114 0.063-0.191 0.183-0.191 0.32 0 0.004 0 0.009 0 0.013l-0-0.001v2.423h-0.908c-0.199-7.175-6.097-12.95-13.319-12.95-0.165 0-0.306 0.107-0.355 0.256l-0.001 0.003-4.161 12.692h-0.647l-2.043-2.308c-0.069-0.079-0.169-0.128-0.28-0.13h-4.861c-0.208 0.002-0.375 0.171-0.375 0.379 0 0.096 0.036 0.184 0.095 0.251l-0-0 1.934 2.182-1.934 2.184c-0.059 0.066-0.094 0.154-0.094 0.25 0 0.056 0.012 0.109 0.034 0.157l-0.001-0.002zM27.875 13.924l2.948 2.076-2.948 2.076zM5.241 18.063h-1.466l1.49-1.688h1.466zM13.169 28.572l-3.999-12.197h16.297c-0.196 6.671-5.614 12.055-12.298 12.197zM13.169 3.428c6.684 0.142 12.102 5.526 12.298 12.197h-16.297zM6.731 15.625h-1.466l-1.49-1.688h1.466zM1.383 13.938h1.39l1.49 1.688h-1.39zM2.873 16.375h1.39l-1.49 1.688h-1.39z"></path>
</svg>
