<!-- Generated by IcoMoon.io -->
<svg version="1.1" xmlns="http://www.w3.org/2000/svg" width="32" height="32" viewBox="0 0 32 32">
<title>btt</title>
<path d="M17.168 7.274c-0.16-0.24-0.39-0.419-0.656-0.512-0.141-0.058-0.294-0.086-0.461-0.086h-0.006l-0.045-0.003c-0.022 0-0.038 0.003-0.061 0.006-0.16 0-0.31 0.029-0.442 0.080-0.278 0.096-0.509 0.278-0.653 0.506l-9.632 9.654c-0.224 0.224-0.349 0.531-0.349 0.861 0 0.368 0.157 0.73 0.422 0.998 0.266 0.266 0.608 0.413 0.966 0.413 0.33 0 0.64-0.125 0.874-0.358 0.010-0.013 0.019-0.019 0.032-0.032 0.026-0.019 0.051-0.048 0.064-0.067l7.411-7.405 0.016 17.805c-0.006 0.038-0.006 0.074-0.003 0.109l0.003 0.042c0 0.669 0.586 1.194 1.334 1.194 0.755 0 1.366-0.534 1.366-1.194l0.013-17.955 7.405 7.392c0.022 0.029 0.051 0.054 0.080 0.080l0.032 0.032c0.23 0.234 0.541 0.358 0.87 0.358 0.358 0 0.701-0.147 0.966-0.413 0.534-0.531 0.566-1.366 0.077-1.856l-9.626-9.648z"></path>
<path d="M30.464 1.52h-28.928c-0.672 0-1.216 0.544-1.216 1.213s0.544 1.216 1.216 1.216h28.928c0.669 0 1.216-0.544 1.216-1.216 0-0.666-0.544-1.213-1.216-1.213z"></path>
</svg>
