<!-- Generated by IcoMoon.io -->
<svg version="1.1" xmlns="http://www.w3.org/2000/svg" width="32" height="32" viewBox="0 0 32 32">
<title>human-brain</title>
<path d="M19.167 16.919c0.324 0.163 0.509 0.513 0.463 0.873-0.027 0.21 0.12 0.403 0.331 0.431s0.403-0.12 0.431-0.331c0.089-0.683-0.264-1.349-0.879-1.659-0.009-0.005-0.018-0.009-0.027-0.013-0.102-0.28-0.051-0.592 0.135-0.824 0.133-0.165 0.106-0.407-0.059-0.54s-0.407-0.106-0.54 0.059c-0.26 0.323-0.385 0.735-0.349 1.148-0.302 0.021-0.591 0.126-0.837 0.302-0.17 0.125-0.208 0.363-0.085 0.534s0.361 0.211 0.534 0.089c0.259-0.186 0.598-0.212 0.883-0.070z"></path>
<path d="M21.865 15.224c0.148 0.152 0.391 0.155 0.543 0.007 0.079-0.078 0.149-0.165 0.206-0.261 0.191 0.079 0.41-0.008 0.495-0.195s0.008-0.41-0.177-0.502c-0.247-0.121-0.374-0.398-0.306-0.665 0.053-0.205-0.071-0.415-0.276-0.467s-0.415 0.071-0.468 0.276c-0.087 0.342-0.037 0.704 0.14 1.009-0.027 0.097-0.080 0.185-0.152 0.255-0.151 0.148-0.154 0.391-0.006 0.543z"></path>
<path d="M18.634 12.308c0.105 0.037 0.213 0.062 0.324 0.073 0.001 0.085 0.010 0.169 0.026 0.252 0.027 0.135 0.075 0.264 0.141 0.384 0.066 0.121 0.191 0.198 0.329 0.201s0.267-0.068 0.338-0.186 0.073-0.266 0.005-0.386c-0.111-0.202-0.092-0.451 0.049-0.634s0.378-0.264 0.602-0.207c0.134 0.036 0.276-0.003 0.372-0.101s0.134-0.241 0.096-0.374c-0.038-0.133-0.143-0.235-0.278-0.268-0.551-0.141-1.131 0.079-1.45 0.55-0.187 0.033-0.379-0.029-0.512-0.165-0.095-0.1-0.237-0.142-0.372-0.108s-0.24 0.137-0.277 0.271c-0.037 0.133 0.001 0.277 0.099 0.374 0.142 0.145 0.314 0.256 0.506 0.325z"></path>
<path d="M20.146 19.996c-0.166-0.026-0.323-0.090-0.461-0.186-0.174-0.122-0.413-0.079-0.535 0.094s-0.079 0.413 0.094 0.535c0.232 0.163 0.498 0.271 0.779 0.316 0.22 0.036 0.445 0.032 0.663-0.012 0.035 0.378 0.182 0.738 0.423 1.031 0.135 0.164 0.377 0.187 0.541 0.052s0.187-0.377 0.052-0.541c-0.229-0.278-0.309-0.649-0.218-0.997 0.003-0.011 0.006-0.021 0.009-0.032 0.053-0.178 0.15-0.341 0.282-0.472 0.15-0.15 0.15-0.393 0-0.543s-0.393-0.15-0.543-0c-0.188 0.188-0.334 0.413-0.429 0.662-0.205 0.098-0.434 0.131-0.658 0.094z"></path>
<path d="M20.158 24.141c0.714 0.384 1.577 0.364 2.273-0.052s1.122-1.167 1.121-1.977v-0.657c0.948-0.376 1.633-1.216 1.811-2.22s-0.176-2.028-0.936-2.707c0.105-0.105 0.2-0.22 0.282-0.343 0.677-1.018 0.4-2.393-0.619-3.070-0.078-0.052-0.16-0.098-0.244-0.139 0.25-0.992-0.034-2.043-0.748-2.776s-1.759-1.041-2.757-0.816c0.073-0.729-0.261-1.438-0.869-1.846s-1.392-0.447-2.038-0.103c-0.646 0.345-1.050 1.017-1.051 1.749v13.184c-0 0.893 0.515 1.706 1.324 2.085s1.763 0.258 2.45-0.312zM17.152 22.368v-13.184c-0-0.506 0.313-0.959 0.786-1.138s1.008-0.046 1.342 0.333c0.335 0.379 0.399 0.926 0.163 1.373-0.067 0.042-0.134 0.087-0.198 0.134-0.17 0.126-0.205 0.366-0.079 0.536s0.365 0.207 0.536 0.082c0.829-0.611 1.974-0.557 2.742 0.13s0.949 1.818 0.434 2.71c-0.106 0.184-0.044 0.418 0.14 0.525s0.419 0.043 0.525-0.14c0.007-0.012 0.013-0.024 0.019-0.036 0.035 0.019 0.070 0.040 0.103 0.062 0.384 0.254 0.625 0.677 0.646 1.137s-0.179 0.903-0.538 1.192c-0.406-0.203-0.854-0.308-1.308-0.307-0.212 0-0.384 0.172-0.384 0.384s0.172 0.384 0.384 0.384c1.202 0 2.176 0.974 2.176 2.176s-0.974 2.176-2.176 2.176c-0.212 0-0.384 0.172-0.384 0.384s0.172 0.384 0.384 0.384c0.107-0 0.214-0.006 0.32-0.018v0.466c0 0.848-0.688 1.536-1.536 1.536s-1.536-0.688-1.536-1.536c0-0.212-0.172-0.384-0.384-0.384s-0.384 0.172-0.384 0.384c-0 0.568 0.21 1.116 0.59 1.538-0.471 0.311-1.076 0.339-1.574 0.071s-0.808-0.788-0.808-1.353z"></path>
<path d="M10.88 24.416c0.381 0 0.755-0.094 1.090-0.275 0.687 0.57 1.642 0.692 2.45 0.312s1.324-1.192 1.323-2.085v-13.184c0.004-0.735-0.399-1.412-1.047-1.759s-1.435-0.307-2.045 0.104c-0.61 0.411-0.942 1.125-0.864 1.856-0.998-0.227-2.043 0.081-2.759 0.813s-0.998 1.785-0.746 2.778c-0.084 0.041-0.165 0.088-0.244 0.139-1.018 0.677-1.296 2.051-0.619 3.070 0.082 0.123 0.176 0.238 0.282 0.343-0.76 0.679-1.114 1.704-0.936 2.707s0.864 1.843 1.811 2.22v0.657c0.002 1.272 1.032 2.303 2.304 2.304zM7.488 18.72c0.002-1.201 0.975-2.175 2.176-2.176 0.212 0 0.384-0.172 0.384-0.384s-0.172-0.384-0.384-0.384c-0.454-0.001-0.902 0.105-1.308 0.307-0.359-0.289-0.558-0.732-0.537-1.191s0.26-0.883 0.644-1.137c0.034-0.023 0.068-0.043 0.103-0.062 0.006 0.012 0.013 0.024 0.019 0.036 0.106 0.184 0.341 0.246 0.525 0.14s0.246-0.341 0.14-0.525c-0.515-0.893-0.334-2.024 0.434-2.71s1.912-0.741 2.742-0.13c0.171 0.125 0.41 0.089 0.536-0.082s0.090-0.41-0.079-0.536c-0.065-0.048-0.131-0.092-0.198-0.134-0.236-0.447-0.171-0.994 0.164-1.373s0.869-0.512 1.342-0.333 0.786 0.632 0.786 1.138v13.184c0.001 0.565-0.31 1.085-0.808 1.353s-1.102 0.24-1.574-0.071c0.38-0.422 0.59-0.97 0.59-1.538 0-0.212-0.172-0.384-0.384-0.384s-0.384 0.172-0.384 0.384c0 0.848-0.688 1.536-1.536 1.536s-1.536-0.688-1.536-1.536v-0.466c0.107 0.012 0.213 0.017 0.32 0.018 0.212 0 0.384-0.172 0.384-0.384s-0.172-0.384-0.384-0.384c-1.201-0.002-2.175-0.975-2.176-2.176z"></path>
<path d="M13.455 16.063c0.036-0.413-0.089-0.825-0.349-1.148-0.133-0.165-0.374-0.192-0.54-0.059s-0.192 0.374-0.059 0.54c0.186 0.232 0.237 0.544 0.135 0.824-0.009 0.004-0.018 0.008-0.027 0.013-0.616 0.31-0.968 0.975-0.879 1.659 0.028 0.21 0.22 0.358 0.431 0.331s0.358-0.221 0.331-0.431c-0.038-0.291 0.076-0.581 0.303-0.768s0.533-0.244 0.812-0.152c0.083 0.027 0.161 0.067 0.232 0.118 0.111 0.081 0.258 0.097 0.383 0.041s0.212-0.176 0.225-0.313c0.014-0.137-0.047-0.271-0.16-0.351-0.245-0.176-0.535-0.281-0.837-0.302z"></path>
<path d="M10.257 14.681c-0.072-0.070-0.124-0.158-0.152-0.255 0.177-0.305 0.227-0.668 0.14-1.010-0.053-0.205-0.262-0.329-0.467-0.277s-0.329 0.262-0.276 0.467c0.068 0.266-0.060 0.543-0.306 0.665-0.186 0.092-0.265 0.315-0.179 0.503s0.306 0.274 0.497 0.194c0.058 0.095 0.127 0.182 0.207 0.261 0.098 0.097 0.24 0.134 0.373 0.098s0.236-0.142 0.27-0.276c0.034-0.134-0.007-0.275-0.106-0.371z"></path>
<path d="M11.679 11.804c0.193-0.049 0.398 0.004 0.542 0.142s0.208 0.339 0.169 0.534c-0.011 0.058-0.032 0.114-0.060 0.165-0.068 0.12-0.066 0.268 0.005 0.386s0.2 0.19 0.338 0.187c0.138-0.003 0.264-0.080 0.329-0.201 0.066-0.12 0.114-0.25 0.141-0.384 0.017-0.083 0.025-0.167 0.026-0.252 0.315-0.031 0.608-0.171 0.829-0.398 0.098-0.098 0.136-0.241 0.099-0.374s-0.143-0.237-0.277-0.271c-0.134-0.034-0.276 0.007-0.372 0.107-0.061 0.062-0.135 0.11-0.217 0.139-0.094 0.034-0.196 0.043-0.294 0.025-0.319-0.471-0.899-0.691-1.45-0.55-0.134 0.033-0.24 0.136-0.278 0.268s-0.001 0.276 0.096 0.374c0.097 0.098 0.239 0.137 0.373 0.101z"></path>
<path d="M10.352 19.784c0.132 0.131 0.229 0.294 0.281 0.472 0.003 0.011 0.006 0.022 0.009 0.033 0.092 0.348 0.011 0.719-0.217 0.997-0.135 0.163-0.112 0.406 0.052 0.541s0.406 0.112 0.54-0.052c0.241-0.293 0.389-0.652 0.423-1.031 0.502 0.099 1.023-0.011 1.442-0.304 0.174-0.122 0.216-0.361 0.094-0.535s-0.361-0.216-0.535-0.094c-0.329 0.23-0.756 0.265-1.118 0.093-0.095-0.248-0.241-0.474-0.429-0.662-0.15-0.15-0.393-0.15-0.543 0s-0.15 0.393 0 0.543z"></path>
<path d="M30.082 13.801c-0.15-0.15-0.393-0.149-0.543 0.001s-0.149 0.393 0.001 0.543l1.21 1.207h-3.423c-0.212 0-0.384 0.172-0.384 0.384s0.172 0.384 0.384 0.384h3.423l-1.21 1.206c-0.15 0.15-0.151 0.393-0.001 0.543s0.393 0.151 0.543 0.001l1.869-1.863c0.072-0.072 0.113-0.17 0.113-0.272s-0.041-0.2-0.113-0.272z"></path>
<path d="M2.317 18.182c0.155 0 0.296-0.094 0.355-0.237s0.026-0.309-0.084-0.419l-1.21-1.206h3.423c0.212 0 0.384-0.172 0.384-0.384s-0.172-0.384-0.384-0.384h-3.423l1.21-1.207c0.15-0.15 0.151-0.393 0.001-0.543s-0.393-0.151-0.543-0.001l-1.869 1.863c-0.072 0.072-0.113 0.17-0.113 0.272s0.040 0.2 0.113 0.272l1.869 1.863c0.072 0.072 0.169 0.112 0.271 0.112z"></path>
<path d="M15.792 31.823c0.072 0.072 0.17 0.113 0.272 0.113s0.2-0.041 0.272-0.113l1.863-1.869c0.15-0.15 0.149-0.393-0.001-0.543s-0.393-0.149-0.543 0.001l-1.206 1.211v-3.423c0-0.212-0.172-0.384-0.384-0.384s-0.384 0.172-0.384 0.384v3.423l-1.207-1.211c-0.15-0.15-0.393-0.151-0.543-0.001s-0.151 0.393-0.001 0.543z"></path>
<path d="M16.064 5.056c0.212 0 0.384-0.172 0.384-0.384v-3.423l1.207 1.211c0.15 0.15 0.393 0.151 0.543 0.001s0.151-0.393 0.001-0.543l-1.863-1.869c-0.072-0.072-0.17-0.113-0.272-0.113s-0.2 0.041-0.272 0.113l-1.862 1.869c-0.15 0.15-0.149 0.393 0.001 0.543s0.393 0.149 0.543-0.001l1.206-1.211v3.423c0 0.212 0.172 0.384 0.384 0.384z"></path>
<path d="M24.468 26.59c-0.212 0-0.384 0.172-0.384 0.384s0.172 0.384 0.384 0.384l2.639 0.005c0.102 0 0.2-0.041 0.272-0.113s0.113-0.17 0.112-0.272l-0.005-2.639c-0-0.212-0.172-0.383-0.384-0.383h-0c-0.212 0-0.384 0.173-0.384 0.385l0.003 1.709-2.421-2.421c-0.15-0.148-0.392-0.147-0.541 0.002s-0.15 0.39-0.002 0.541l2.421 2.421-1.709-0.003z"></path>
<path d="M7.66 5.282c0.212 0 0.384-0.172 0.384-0.384s-0.171-0.384-0.384-0.384l-2.638-0.005c-0.102-0-0.2 0.040-0.272 0.112s-0.113 0.17-0.112 0.272l0.005 2.638c0 0.212 0.172 0.383 0.384 0.383h0c0.212-0 0.384-0.173 0.383-0.385l-0.003-1.709 2.421 2.42c0.097 0.098 0.239 0.137 0.372 0.102s0.238-0.139 0.273-0.273c0.036-0.133-0.004-0.275-0.102-0.372l-2.421-2.421 1.709 0.003z"></path>
<path d="M8.371 23.629c-0.15-0.15-0.393-0.15-0.543 0l-2.42 2.421 0.003-1.709c0-0.212-0.171-0.384-0.383-0.385h-0c-0.212 0-0.384 0.172-0.384 0.383l-0.005 2.639c-0 0.102 0.040 0.2 0.112 0.272s0.17 0.113 0.272 0.113h0l2.639-0.005c0.212 0 0.384-0.172 0.384-0.384s-0.172-0.384-0.384-0.384h-0.001l-1.709 0.003 2.42-2.421c0.15-0.15 0.15-0.393 0-0.543z"></path>
<path d="M27.102 7.916c0.212 0 0.384-0.171 0.384-0.383l0.005-2.638c0-0.102-0.040-0.2-0.112-0.272s-0.17-0.113-0.272-0.113h-0l-2.639 0.005c-0.212 0-0.384 0.172-0.384 0.384s0.172 0.384 0.384 0.384h0.001l1.709-0.003-2.421 2.42c-0.098 0.097-0.137 0.239-0.102 0.372s0.14 0.238 0.273 0.273c0.133 0.035 0.275-0.004 0.372-0.102l2.421-2.42-0.003 1.709c-0 0.212 0.171 0.384 0.384 0.385z"></path>
</svg>
