<!-- Generated by IcoMoon.io -->
<svg version="1.1" xmlns="http://www.w3.org/2000/svg" width="32" height="32" viewBox="0 0 32 32">
<title>identify</title>
<path fill="#f0bc5e" d="M16 10.5c-1.93 0-3.5-1.57-3.5-3.5s1.57-3.5 3.5-3.5 3.5 1.571 3.5 3.5-1.57 3.5-3.5 3.5z"></path>
<path fill="#000" d="M19.529 13.601c0.087-0.682 0.392-1.313 0.886-1.808l0.182-0.182c1.227-1.227 1.904-2.86 1.904-4.611 0-3.584-2.916-6.5-6.5-6.5s-6.5 2.916-6.5 6.514c0 1.737 0.676 3.369 1.904 4.596l0.182 0.182c0.494 0.495 0.799 1.126 0.886 1.808-0.566 0.215-0.972 0.759-0.972 1.399 0 0.651 0.419 1.201 1 1.408v9.71l2.329 4.658c0.223 0.446 0.672 0.724 1.171 0.724s0.948-0.277 1.171-0.724l2.329-4.659v-9.71c0.581-0.207 1-0.757 1-1.408 0-0.64-0.405-1.184-0.971-1.399zM12.111 10.904c-1.039-1.039-1.611-2.42-1.611-3.904 0-3.033 2.467-5.5 5.5-5.5s5.5 2.467 5.5 5.514c0 1.469-0.572 2.851-1.611 3.889l-0.182 0.182c-0.659 0.659-1.064 1.503-1.174 2.414h-1.034v-3.342c-0.311 0.149-0.647 0.252-1 0.303v3.040h-1v-3.040c-0.353-0.051-0.689-0.154-1-0.303v3.342h-1.034c-0.11-0.911-0.514-1.755-1.174-2.414zM18.5 25.5h-1v-9h1zM16.5 25.5h-1v-9h1zM14.5 25.5h-1v-9h1zM16.276 30.329c-0.105 0.211-0.447 0.211-0.553 0l-1.915-3.829h4.382zM19 15.5h-6c-0.275 0-0.5-0.224-0.5-0.5s0.225-0.5 0.5-0.5h6c0.276 0 0.5 0.224 0.5 0.5s-0.224 0.5-0.5 0.5z"></path>
<path fill="#000" d="M19.854 4.354l-0.707-0.707-3.646 3.647-0.646-0.646-0.707 0.707 1.354 1.353z"></path>
<path fill="#000" d="M4.5 28.256v-12.257h-1v12.257l-1.576-2.521-0.848 0.53 2.924 4.678 2.924-4.678-0.848-0.53z"></path>
<path fill="#000" d="M9 23.756v-12.257h-1v12.257l-1.576-2.521-0.848 0.53 2.924 4.678 2.924-4.678-0.848-0.53z"></path>
<path fill="#000" d="M3.5 14h1v1h-1z"></path>
<path fill="#000" d="M3.5 10h1v1h-1z"></path>
<path fill="#000" d="M3.5 12h1v1h-1z"></path>
<path fill="#000" d="M30.924 13.735l-2.924-4.678-2.924 4.678 0.848 0.53 1.576-2.521v12.257h1v-12.257l1.576 2.521z"></path>
<path fill="#000" d="M20.576 18.235l0.848 0.53 1.576-2.521v12.256h1v-12.257l1.576 2.521 0.848-0.53-2.924-4.678z"></path>
<path fill="#000" d="M27.5 29h1v1h-1z"></path>
<path fill="#000" d="M27.5 25h1v1h-1z"></path>
<path fill="#000" d="M27.5 27h1v1h-1z"></path>
</svg>
