<!-- Generated by IcoMoon.io -->
<svg version="1.1" xmlns="http://www.w3.org/2000/svg" width="32" height="32" viewBox="0 0 32 32">
<title>switch</title>
<path d="M24.333 8h-4.667c-0.405 0-0.769-0.244-0.924-0.617-0.153-0.373-0.069-0.804 0.217-1.089l4.667-4.667c0.285-0.287 0.716-0.372 1.089-0.217s0.617 0.52 0.617 0.924v4.667c0 0.552-0.448 1-1 1z"></path>
<path d="M7.667 17.333c-0.129 0-0.259-0.025-0.383-0.076-0.373-0.155-0.617-0.52-0.617-0.924v-4.667c0-0.552 0.448-1 1-1h4.667c0.405 0 0.769 0.244 0.924 0.617 0.153 0.373 0.069 0.804-0.217 1.089l-4.667 4.667c-0.191 0.192-0.447 0.293-0.707 0.293z"></path>
<path d="M9.333 22c0 1.841-1.492 3.333-3.333 3.333s-3.333-1.492-3.333-3.333c0-1.841 1.492-3.333 3.333-3.333s3.333 1.492 3.333 3.333z"></path>
<path d="M8.333 26.667h-4.667c-2.023 0-3.667 1.644-3.667 3.667v0.667c0 0.552 0.448 1 1 1h10c0.552 0 1-0.448 1-1v-0.667c0-2.023-1.644-3.667-3.667-3.667z"></path>
<path d="M29.333 22c0 1.841-1.492 3.333-3.333 3.333s-3.333-1.492-3.333-3.333c0-1.841 1.492-3.333 3.333-3.333s3.333 1.492 3.333 3.333z"></path>
<path d="M28.333 26.667h-4.667c-2.023 0-3.667 1.644-3.667 3.667v0.667c0 0.552 0.448 1 1 1h10c0.552 0 1-0.448 1-1v-0.667c0-2.023-1.644-3.667-3.667-3.667z"></path>
<path d="M8.215 8.827c-0.103 0-0.205-0.012-0.309-0.036-0.716-0.171-1.159-0.889-0.989-1.605 1.005-4.231 4.741-7.185 9.084-7.185 2.472 0 4.799 0.956 6.552 2.693 0.523 0.519 0.528 1.363 0.009 1.885-0.52 0.523-1.361 0.528-1.887 0.009-1.251-1.239-2.911-1.921-4.675-1.921-3.101 0-5.771 2.111-6.489 5.136-0.147 0.612-0.693 1.024-1.296 1.024z"></path>
<path d="M16 18.667c-2.472 0-4.799-0.956-6.552-2.693-0.523-0.519-0.528-1.363-0.009-1.885 0.52-0.524 1.361-0.528 1.887-0.009 1.251 1.239 2.911 1.921 4.675 1.921 3.101 0 5.771-2.111 6.489-5.136 0.171-0.717 0.891-1.153 1.605-0.988 0.716 0.169 1.159 0.889 0.988 1.605-1.004 4.231-4.74 7.185-9.083 7.185z"></path>
</svg>
