<!-- Generated by IcoMoon.io -->
<svg version="1.1" xmlns="http://www.w3.org/2000/svg" width="32" height="32" viewBox="0 0 32 32">
<title>user</title>
<path d="M16 0c-8.836 0-16 7.164-16 16s7.164 16 16 16c0.482 0 0.962-0.022 1.44-0.065 0.444-0.040 0.885-0.101 1.322-0.177l0.168-0.030c8.124-1.516 13.757-8.97 12.997-17.2s-7.663-14.526-15.927-14.529zM14.715 30.877h-0.038c-0.415-0.037-0.827-0.092-1.235-0.163-0.023-0.004-0.047-0.007-0.070-0.011-0.399-0.071-0.794-0.16-1.185-0.263l-0.095-0.024c-0.381-0.103-0.758-0.223-1.13-0.357-0.039-0.014-0.077-0.026-0.116-0.040-0.364-0.134-0.722-0.284-1.074-0.446-0.044-0.020-0.088-0.038-0.131-0.059-0.346-0.16-0.684-0.34-1.017-0.53-0.047-0.027-0.094-0.053-0.141-0.079-0.327-0.191-0.647-0.396-0.96-0.612-0.047-0.033-0.095-0.065-0.142-0.098-0.308-0.218-0.608-0.451-0.901-0.693l-0.080-0.070v-4.497c0.004-3.239 2.628-5.863 5.867-5.867h7.467c3.239 0.004 5.863 2.628 5.867 5.867v4.497l-0.071 0.059c-0.298 0.249-0.604 0.484-0.919 0.707-0.042 0.029-0.084 0.057-0.125 0.086-0.317 0.22-0.642 0.428-0.975 0.622-0.042 0.024-0.084 0.047-0.126 0.071-0.337 0.192-0.68 0.373-1.030 0.536-0.040 0.019-0.080 0.036-0.121 0.053-0.355 0.164-0.716 0.315-1.083 0.449-0.036 0.014-0.073 0.025-0.107 0.038-0.373 0.134-0.752 0.255-1.135 0.359l-0.092 0.023c-0.391 0.103-0.786 0.192-1.186 0.264-0.023 0.004-0.046 0.007-0.069 0.011-0.409 0.071-0.821 0.127-1.236 0.164h-0.038c-0.427 0.037-0.853 0.056-1.285 0.056s-0.862-0.016-1.288-0.053zM26.667 26.442v-3.508c-0.004-3.827-3.106-6.929-6.933-6.933h-7.467c-3.827 0.004-6.929 3.106-6.933 6.933v3.508c-5.744-5.863-5.68-15.262 0.143-21.047s15.223-5.784 21.047 0c5.823 5.784 5.888 15.184 0.143 21.047z"></path>
<path d="M16 4.267c-2.946 0-5.333 2.388-5.333 5.333s2.388 5.333 5.333 5.333 5.333-2.388 5.333-5.333c-0.003-2.944-2.389-5.33-5.333-5.333zM16 13.867c-2.357 0-4.267-1.91-4.267-4.267s1.91-4.267 4.267-4.267 4.267 1.91 4.267 4.267c-0.003 2.355-1.911 4.264-4.267 4.267z"></path>
</svg>
